<svg xmlns="http://www.w3.org/2000/svg" xmlns:xlink="http://www.w3.org/1999/xlink" width="1920" zoomAndPan="magnify" viewBox="0 0 1440 809.999993" height="1080" preserveAspectRatio="xMidYMid meet" version="1.0"><defs><g/><clipPath id="47da4e4102"><rect x="0" width="1433" y="0" height="661"/></clipPath><clipPath id="f689b97f09"><rect x="0" width="61" y="0" height="253"/></clipPath></defs><g transform="matrix(1, 0, 0, 1, 1, 129)"><g clip-path="url(#47da4e4102)"><g fill="#dad7ce" fill-opacity="1"><g transform="translate(5.182596, 499.216044)"><g><path d="M 32.828125 0 L 32.828125 -8.375 C 42.703125 -11.375 49.460938 -17.804688 53.109375 -27.671875 C 56.753906 -37.546875 58.578125 -55.578125 58.578125 -81.765625 L 58.578125 -368.890625 C 58.578125 -395.492188 56.753906 -413.625 53.109375 -423.28125 C 49.460938 -432.9375 42.703125 -439.269531 32.828125 -442.28125 L 32.828125 -450.640625 L 186.703125 -450.640625 C 230.898438 -450.640625 268.664062 -444.304688 300 -431.640625 C 331.332031 -418.984375 356.867188 -402.140625 376.609375 -381.109375 C 396.347656 -360.085938 410.832031 -336.804688 420.0625 -311.265625 C 429.289062 -285.734375 433.90625 -259.875 433.90625 -233.6875 C 434.332031 -188.625 424.992188 -148.492188 405.890625 -113.296875 C 386.796875 -78.109375 359.757812 -50.425781 324.78125 -30.25 C 289.800781 -10.082031 248.707031 0 201.5 0 Z M 111.375 -56.65625 C 111.375 -41.632812 113.945312 -30.046875 119.09375 -21.890625 C 124.25 -13.734375 135.625 -9.65625 153.21875 -9.65625 L 200.21875 -9.65625 C 256.4375 -9.65625 299.675781 -25.859375 329.9375 -58.265625 C 360.195312 -90.671875 375.328125 -140.5625 375.328125 -207.9375 C 375.328125 -250.851562 366.957031 -289.910156 350.21875 -325.109375 C 333.476562 -360.304688 308.796875 -388.414062 276.171875 -409.4375 C 243.554688 -430.46875 203.21875 -440.984375 155.15625 -440.984375 L 111.375 -440.984375 Z M 111.375 -56.65625 "/></g></g></g><g fill="#dad7ce" fill-opacity="1"><g transform="translate(471.925179, 499.216044)"><g><path d="M 232.40625 6.4375 C 209.226562 6.4375 186.800781 3.429688 165.125 -2.578125 C 143.457031 -8.585938 124.035156 -18.242188 106.859375 -31.546875 C 89.691406 -44.847656 75.957031 -62.550781 65.65625 -84.65625 C 55.363281 -106.757812 50.21875 -133.90625 50.21875 -166.09375 L 50.21875 -368.890625 C 50.21875 -395.492188 48.390625 -413.625 44.734375 -423.28125 C 41.085938 -432.9375 34.332031 -439.269531 24.46875 -442.28125 L 24.46875 -450.640625 L 128.75 -450.640625 L 128.75 -442.28125 C 119.3125 -439.269531 112.660156 -432.9375 108.796875 -423.28125 C 104.929688 -413.625 103 -395.492188 103 -368.890625 L 103 -169.953125 C 103 -130.046875 109.648438 -98.179688 122.953125 -74.359375 C 136.265625 -50.535156 154.289062 -33.363281 177.03125 -22.84375 C 199.78125 -12.332031 225.101562 -7.078125 253 -7.078125 C 266.738281 -7.078125 281.117188 -9.648438 296.140625 -14.796875 C 311.160156 -19.953125 325.210938 -28.753906 338.296875 -41.203125 C 351.390625 -53.648438 362.015625 -70.390625 370.171875 -91.421875 C 378.328125 -112.453125 382.40625 -138.628906 382.40625 -169.953125 L 382.40625 -343.140625 C 382.40625 -367.597656 380.6875 -386.585938 377.25 -400.109375 C 373.820312 -413.628906 368.890625 -423.394531 362.453125 -429.40625 C 356.015625 -435.414062 348.070312 -439.707031 338.625 -442.28125 L 338.625 -450.640625 L 418.453125 -450.640625 L 418.453125 -442.28125 C 409.015625 -439.269531 402.363281 -432.9375 398.5 -423.28125 C 394.632812 -413.625 392.703125 -395.492188 392.703125 -368.890625 L 392.703125 -171.890625 C 392.703125 -128.972656 385.515625 -94.421875 371.140625 -68.234375 C 356.765625 -42.054688 337.554688 -23.066406 313.515625 -11.265625 C 289.484375 0.535156 262.445312 6.4375 232.40625 6.4375 Z M 232.40625 6.4375 "/></g></g></g><g fill="#dad7ce" fill-opacity="1"><g transform="translate(909.053783, 499.216044)"><g><path d="M 262.65625 6.4375 C 235.1875 6.4375 207.929688 1.820312 180.890625 -7.40625 C 153.859375 -16.632812 129.179688 -30.796875 106.859375 -49.890625 C 84.546875 -68.992188 66.738281 -93.132812 53.4375 -122.3125 C 40.132812 -151.5 33.484375 -186.050781 33.484375 -225.96875 C 33.484375 -270.175781 43.140625 -309.550781 62.453125 -344.09375 C 81.765625 -378.644531 108.585938 -405.898438 142.921875 -425.859375 C 177.253906 -445.816406 217.164062 -455.796875 262.65625 -455.796875 C 289.695312 -455.796875 316.738281 -451.070312 343.78125 -441.625 C 370.820312 -432.1875 395.390625 -417.914062 417.484375 -398.8125 C 439.585938 -379.71875 457.289062 -355.578125 470.59375 -326.390625 C 483.90625 -297.210938 490.5625 -262.878906 490.5625 -223.390625 C 490.5625 -183.472656 483.90625 -149.132812 470.59375 -120.375 C 457.289062 -91.625 439.476562 -67.804688 417.15625 -48.921875 C 394.84375 -30.035156 370.273438 -16.085938 343.453125 -7.078125 C 316.628906 1.929688 289.695312 6.4375 262.65625 6.4375 Z M 84.984375 -263.3125 C 86.265625 -231.113281 92.160156 -199.882812 102.671875 -169.625 C 113.191406 -139.375 127.570312 -112.226562 145.8125 -88.1875 C 164.050781 -64.15625 185.398438 -45.054688 209.859375 -30.890625 C 234.328125 -16.734375 260.941406 -9.65625 289.703125 -9.65625 C 324.035156 -9.65625 352.570312 -17.164062 375.3125 -32.1875 C 398.0625 -47.207031 414.910156 -67.703125 425.859375 -93.671875 C 436.804688 -119.640625 441.632812 -148.71875 440.34375 -180.90625 C 439.0625 -214.382812 433.160156 -246.679688 422.640625 -277.796875 C 412.128906 -308.910156 397.859375 -336.695312 379.828125 -361.15625 C 361.804688 -385.625 340.5625 -405.046875 316.09375 -419.421875 C 291.632812 -433.796875 265.023438 -440.984375 236.265625 -440.984375 C 203.648438 -440.984375 175.859375 -433.472656 152.890625 -418.453125 C 129.929688 -403.429688 112.550781 -382.613281 100.75 -356 C 88.945312 -329.394531 83.691406 -298.5 84.984375 -263.3125 Z M 84.984375 -263.3125 "/></g></g></g></g></g><g transform="matrix(1, 0, 0, 1, 525, 263)"><g clip-path="url(#f689b97f09)"><g fill="#ffffff" fill-opacity="1"><g transform="translate(45.840947, 251.262802)"><g><path d="M 0.46875 -34 L -35.53125 -6.34375 L -9.8125 -6.34375 C -7.570312 -6.34375 -5.84375 -6.5 -4.625 -6.8125 C -3.414062 -7.125 -2.523438 -7.582031 -1.953125 -8.1875 C -1.390625 -8.789062 -0.992188 -9.523438 -0.765625 -10.390625 L 0 -10.390625 L 0 -3.046875 L -0.765625 -3.046875 C -1.035156 -3.953125 -1.617188 -4.570312 -2.515625 -4.90625 C -3.421875 -5.238281 -5.066406 -5.40625 -7.453125 -5.40625 L -33.640625 -5.40625 C -36.066406 -5.40625 -37.71875 -5.1875 -38.59375 -4.75 C -39.476562 -4.320312 -40.0625 -3.519531 -40.34375 -2.34375 L -41.109375 -2.34375 L -41.109375 -8.109375 L -7.875 -33.765625 L -31.296875 -33.765625 C -33.523438 -33.765625 -35.253906 -33.609375 -36.484375 -33.296875 C -37.722656 -32.984375 -38.613281 -32.53125 -39.15625 -31.9375 C -39.707031 -31.351562 -40.101562 -30.613281 -40.34375 -29.71875 L -41.109375 -29.71875 L -41.109375 -37.109375 L -40.34375 -37.109375 C -40.0625 -36.210938 -39.476562 -35.597656 -38.59375 -35.265625 C -37.71875 -34.929688 -36.066406 -34.765625 -33.640625 -34.765625 L 0.46875 -34.765625 Z M 0.46875 -34 "/></g></g></g><g fill="#ffffff" fill-opacity="1"><g transform="translate(45.840947, 211.807702)"><g><path d="M 0 1 L -0.765625 1 C -1.035156 0.175781 -1.570312 -0.625 -2.375 -1.40625 C -3.175781 -2.1875 -4.691406 -3.03125 -6.921875 -3.9375 L -35.578125 -15.5 C -36.523438 -15.851562 -37.445312 -15.816406 -38.34375 -15.390625 L -39.578125 -14.859375 L -41.578125 -19.265625 L -6.875 -33.703125 C -4.675781 -34.609375 -3.175781 -35.421875 -2.375 -36.140625 C -1.570312 -36.867188 -1.035156 -37.546875 -0.765625 -38.171875 L 0 -38.171875 L 0 -29.0625 L -0.765625 -29.0625 C -1.035156 -29.96875 -1.570312 -30.34375 -2.375 -30.1875 C -3.175781 -30.03125 -4.675781 -29.476562 -6.875 -28.53125 L -15.5 -24.953125 L -15.5 -8.390625 L -6.921875 -4.9375 C -3.203125 -3.445312 -1.148438 -3.679688 -0.765625 -5.640625 L 0 -5.640625 Z M -16.375 -8.75 L -16.375 -24.609375 L -35.703125 -16.5625 Z M -16.375 -8.75 "/></g></g></g><g fill="#ffffff" fill-opacity="1"><g transform="translate(45.840947, 178.869748)"><g><path d="M 0 -11.6875 L -0.765625 -11.6875 C -1.035156 -12.582031 -1.617188 -13.195312 -2.515625 -13.53125 C -3.421875 -13.863281 -5.066406 -14.03125 -7.453125 -14.03125 L -40.15625 -14.03125 L -40.15625 -11.15625 C -40.15625 -8.53125 -39.742188 -6.53125 -38.921875 -5.15625 C -38.109375 -3.789062 -36.644531 -2.597656 -34.53125 -1.578125 L -34.640625 -0.9375 L -41.109375 -1.296875 L -41.109375 -31.53125 L -34.640625 -31.890625 L -34.53125 -31.234375 C -36.644531 -30.253906 -38.109375 -29.078125 -38.921875 -27.703125 C -39.742188 -26.335938 -40.15625 -24.328125 -40.15625 -21.671875 L -40.15625 -18.90625 L -7.453125 -18.90625 C -5.066406 -18.90625 -3.421875 -19.070312 -2.515625 -19.40625 C -1.617188 -19.738281 -1.035156 -20.351562 -0.765625 -21.25 L 0 -21.25 Z M 0 -11.6875 "/></g></g></g><g fill="#ffffff" fill-opacity="1"><g transform="translate(45.840947, 145.990497)"><g><path d="M 0.59375 -21.203125 C 0.59375 -19.085938 0.316406 -17.039062 -0.234375 -15.0625 C -0.785156 -13.082031 -1.664062 -11.3125 -2.875 -9.75 C -4.09375 -8.1875 -5.707031 -6.929688 -7.71875 -5.984375 C -9.738281 -5.046875 -12.21875 -4.578125 -15.15625 -4.578125 L -33.640625 -4.578125 C -36.066406 -4.578125 -37.71875 -4.410156 -38.59375 -4.078125 C -39.476562 -3.742188 -40.0625 -3.128906 -40.34375 -2.234375 L -41.109375 -2.234375 L -41.109375 -11.75 L -40.34375 -11.75 C -40.0625 -10.882812 -39.476562 -10.273438 -38.59375 -9.921875 C -37.71875 -9.566406 -36.066406 -9.390625 -33.640625 -9.390625 L -15.5 -9.390625 C -11.863281 -9.390625 -8.957031 -9.992188 -6.78125 -11.203125 C -4.601562 -12.421875 -3.035156 -14.066406 -2.078125 -16.140625 C -1.117188 -18.222656 -0.640625 -20.535156 -0.640625 -23.078125 C -0.640625 -24.328125 -0.875 -25.632812 -1.34375 -27 C -1.820312 -28.375 -2.625 -29.65625 -3.75 -30.84375 C -4.882812 -32.039062 -6.410156 -33.007812 -8.328125 -33.75 C -10.253906 -34.5 -12.644531 -34.875 -15.5 -34.875 L -31.296875 -34.875 C -33.523438 -34.875 -35.253906 -34.71875 -36.484375 -34.40625 C -37.722656 -34.09375 -38.613281 -33.640625 -39.15625 -33.046875 C -39.707031 -32.460938 -40.101562 -31.742188 -40.34375 -30.890625 L -41.109375 -30.890625 L -41.109375 -38.171875 L -40.34375 -38.171875 C -40.0625 -37.304688 -39.476562 -36.695312 -38.59375 -36.34375 C -37.71875 -35.988281 -36.066406 -35.8125 -33.640625 -35.8125 L -15.671875 -35.8125 C -11.765625 -35.8125 -8.613281 -35.15625 -6.21875 -33.84375 C -3.832031 -32.539062 -2.097656 -30.789062 -1.015625 -28.59375 C 0.0546875 -26.40625 0.59375 -23.941406 0.59375 -21.203125 Z M 0.59375 -21.203125 "/></g></g></g><g fill="#ffffff" fill-opacity="1"><g transform="translate(45.840947, 106.124407)"><g><path d="M 0.40625 -32.875 C 0.40625 -31.394531 0.046875 -30.222656 -0.671875 -29.359375 C -1.398438 -28.492188 -2.457031 -27.738281 -3.84375 -27.09375 C -5.238281 -26.445312 -6.953125 -25.695312 -8.984375 -24.84375 C -11.015625 -23.976562 -12.796875 -23.25 -14.328125 -22.65625 C -15.859375 -22.070312 -17.128906 -21.4375 -18.140625 -20.75 C -19.160156 -20.070312 -19.925781 -19.203125 -20.4375 -18.140625 C -20.945312 -17.085938 -21.203125 -15.679688 -21.203125 -13.921875 L -21.203125 -10.15625 L -7.453125 -10.15625 C -5.066406 -10.15625 -3.421875 -10.320312 -2.515625 -10.65625 C -1.617188 -10.988281 -1.035156 -11.601562 -0.765625 -12.5 L 0 -12.5 L 0 -3 L -0.765625 -3 C -1.035156 -3.894531 -1.617188 -4.507812 -2.515625 -4.84375 C -3.421875 -5.175781 -5.066406 -5.34375 -7.453125 -5.34375 L -33.640625 -5.34375 C -36.066406 -5.34375 -37.71875 -5.175781 -38.59375 -4.84375 C -39.476562 -4.507812 -40.0625 -3.894531 -40.34375 -3 L -41.109375 -3 L -41.109375 -14.5625 C -41.109375 -18.550781 -40.707031 -21.660156 -39.90625 -23.890625 C -39.101562 -26.128906 -38.015625 -27.707031 -36.640625 -28.625 C -35.265625 -29.539062 -33.695312 -30 -31.9375 -30 C -29.195312 -30 -26.859375 -29.019531 -24.921875 -27.0625 C -22.984375 -25.113281 -21.800781 -22.21875 -21.375 -18.375 C -21.132812 -20.175781 -20.726562 -21.644531 -20.15625 -22.78125 C -19.59375 -23.914062 -18.832031 -24.851562 -17.875 -25.59375 C -16.914062 -26.34375 -15.75 -27.007812 -14.375 -27.59375 C -13.007812 -28.1875 -11.425781 -28.832031 -9.625 -29.53125 C -7.28125 -30.46875 -5.460938 -31.257812 -4.171875 -31.90625 C -2.878906 -32.550781 -1.96875 -33.148438 -1.4375 -33.703125 C -0.90625 -34.253906 -0.640625 -34.863281 -0.640625 -35.53125 C -0.640625 -35.71875 -0.640625 -35.878906 -0.640625 -36.015625 C -0.640625 -36.160156 -0.660156 -36.3125 -0.703125 -36.46875 L 0 -36.46875 C 0.15625 -36.03125 0.257812 -35.46875 0.3125 -34.78125 C 0.375 -34.101562 0.40625 -33.46875 0.40625 -32.875 Z M -22.078125 -10.15625 L -22.078125 -15.09375 C -22.078125 -18.457031 -22.867188 -20.953125 -24.453125 -22.578125 C -26.035156 -24.203125 -28.082031 -25.015625 -30.59375 -25.015625 C -32.351562 -25.015625 -33.957031 -24.613281 -35.40625 -23.8125 C -36.851562 -23.007812 -38.015625 -21.71875 -38.890625 -19.9375 C -39.773438 -18.15625 -40.21875 -15.816406 -40.21875 -12.921875 C -40.21875 -12.484375 -40.207031 -12.03125 -40.1875 -11.5625 C -40.164062 -11.09375 -40.140625 -10.625 -40.109375 -10.15625 Z M -22.078125 -10.15625 "/></g></g></g><g fill="#ffffff" fill-opacity="1"><g transform="translate(45.840947, 70.192078)"><g><path d="M 0 1 L -0.765625 1 C -1.035156 0.175781 -1.570312 -0.625 -2.375 -1.40625 C -3.175781 -2.1875 -4.691406 -3.03125 -6.921875 -3.9375 L -35.578125 -15.5 C -36.523438 -15.851562 -37.445312 -15.816406 -38.34375 -15.390625 L -39.578125 -14.859375 L -41.578125 -19.265625 L -6.875 -33.703125 C -4.675781 -34.609375 -3.175781 -35.421875 -2.375 -36.140625 C -1.570312 -36.867188 -1.035156 -37.546875 -0.765625 -38.171875 L 0 -38.171875 L 0 -29.0625 L -0.765625 -29.0625 C -1.035156 -29.96875 -1.570312 -30.34375 -2.375 -30.1875 C -3.175781 -30.03125 -4.675781 -29.476562 -6.875 -28.53125 L -15.5 -24.953125 L -15.5 -8.390625 L -6.921875 -4.9375 C -3.203125 -3.445312 -1.148438 -3.679688 -0.765625 -5.640625 L 0 -5.640625 Z M -16.375 -8.75 L -16.375 -24.609375 L -35.703125 -16.5625 Z M -16.375 -8.75 "/></g></g></g><g fill="#ffffff" fill-opacity="1"><g transform="translate(45.840947, 32.557088)"><g><path d="M 0 -3 L -0.765625 -3 C -1.035156 -3.894531 -1.617188 -4.507812 -2.515625 -4.84375 C -3.421875 -5.175781 -5.066406 -5.34375 -7.453125 -5.34375 L -33.640625 -5.34375 C -36.066406 -5.34375 -37.71875 -5.175781 -38.59375 -4.84375 C -39.476562 -4.507812 -40.0625 -3.894531 -40.34375 -3 L -41.109375 -3 L -41.109375 -12.5 L -40.34375 -12.5 C -40.0625 -11.601562 -39.476562 -10.988281 -38.59375 -10.65625 C -37.71875 -10.320312 -36.066406 -10.15625 -33.640625 -10.15625 L -3.578125 -10.15625 C -1.816406 -10.15625 -0.9375 -11.035156 -0.9375 -12.796875 L -0.9375 -19.78125 C -0.9375 -22.601562 -1.359375 -24.765625 -2.203125 -26.265625 C -3.046875 -27.773438 -4.5625 -29.039062 -6.75 -30.0625 L -6.640625 -30.703125 L 0 -30.296875 Z M 0 -3 "/></g></g></g></g></g></svg>