<svg xmlns="http://www.w3.org/2000/svg" xmlns:xlink="http://www.w3.org/1999/xlink" width="1080" zoomAndPan="magnify" viewBox="0 0 810 809.999993" height="1080" preserveAspectRatio="xMidYMid meet" version="1.0"><defs><g/><clipPath id="8618d57562"><path d="M 81 81 L 729 81 L 729 729 L 81 729 Z M 81 81 " clip-rule="nonzero"/></clipPath><clipPath id="91f5f1dd6d"><path d="M 231 81 L 579 81 C 661.84375 81 729 148.15625 729 231 L 729 579 C 729 661.84375 661.84375 729 579 729 L 231 729 C 148.15625 729 81 661.84375 81 579 L 81 231 C 81 148.15625 148.15625 81 231 81 Z M 231 81 " clip-rule="nonzero"/></clipPath><clipPath id="1905f4e968"><path d="M 0 0 L 648 0 L 648 648 L 0 648 Z M 0 0 " clip-rule="nonzero"/></clipPath><clipPath id="0d0e41ab79"><path d="M 150 0 L 498 0 C 580.84375 0 648 67.15625 648 150 L 648 498 C 648 580.84375 580.84375 648 498 648 L 150 648 C 67.15625 648 0 580.84375 0 498 L 0 150 C 0 67.15625 67.15625 0 150 0 Z M 150 0 " clip-rule="nonzero"/></clipPath><clipPath id="37d8b74593"><rect x="0" width="648" y="0" height="648"/></clipPath><clipPath id="7bdfdb7ce8"><rect x="0" width="443" y="0" height="629"/></clipPath></defs><g clip-path="url(#8618d57562)"><g clip-path="url(#91f5f1dd6d)"><g transform="matrix(1, 0, 0, 1, 81, 81)"><g clip-path="url(#37d8b74593)"><g clip-path="url(#1905f4e968)"><g clip-path="url(#0d0e41ab79)"><rect x="-259.2" width="1166.4" fill="#a89a8d" height="1166.39999" y="-259.199998" fill-opacity="1"/></g></g></g></g></g></g><g transform="matrix(1, 0, 0, 1, 195, 131)"><g clip-path="url(#7bdfdb7ce8)"><g fill="#ffffff" fill-opacity="1"><g transform="translate(1.397313, 484.819999)"><g><path d="M 30.984375 0 L 30.984375 -7.890625 C 40.296875 -10.734375 46.671875 -16.8125 50.109375 -26.125 C 53.554688 -35.4375 55.28125 -52.445312 55.28125 -77.15625 L 55.28125 -348.125 C 55.28125 -373.238281 53.554688 -390.347656 50.109375 -399.453125 C 46.671875 -408.566406 40.296875 -414.546875 30.984375 -417.390625 L 30.984375 -425.28125 L 176.1875 -425.28125 C 217.90625 -425.28125 253.546875 -419.304688 283.109375 -407.359375 C 312.679688 -395.410156 336.78125 -379.507812 355.40625 -359.65625 C 374.039062 -339.8125 387.710938 -317.835938 396.421875 -293.734375 C 405.128906 -269.640625 409.484375 -245.242188 409.484375 -220.546875 C 409.890625 -178.015625 401.078125 -140.140625 383.046875 -106.921875 C 365.023438 -73.710938 339.507812 -47.585938 306.5 -28.546875 C 273.5 -9.515625 234.71875 0 190.15625 0 Z M 105.109375 -53.46875 C 105.109375 -39.289062 107.535156 -28.351562 112.390625 -20.65625 C 117.253906 -12.957031 127.988281 -9.109375 144.59375 -9.109375 L 188.953125 -9.109375 C 242.003906 -9.109375 282.804688 -24.398438 311.359375 -54.984375 C 339.921875 -85.566406 354.203125 -132.648438 354.203125 -196.234375 C 354.203125 -236.742188 346.300781 -273.601562 330.5 -306.8125 C 314.707031 -340.019531 291.421875 -366.546875 260.640625 -386.390625 C 229.859375 -406.242188 191.785156 -416.171875 146.421875 -416.171875 L 105.109375 -416.171875 Z M 105.109375 -53.46875 "/></g></g></g></g></g></svg>
